<svg xmlns="http://www.w3.org/2000/svg" xmlns:xlink="http://www.w3.org/1999/xlink" version="1.1" x="0px" y="0px" viewBox="0 0 100 125" style="enable-background:new 0 0 100 100;" xml:space="preserve"><path d="M93.6287766,52.7356033H5.2356019c-1.5106041,0-2.7356021-1.2249985-2.7356021-2.7356033  s1.224998-2.7356033,2.7356021-2.7356033h88.3931732c1.5106049,0,2.7355957,1.2249985,2.7355957,2.7356033  S95.1393814,52.7356033,93.6287766,52.7356033z"/><path d="M61.6190224,85.8809738c-0.6999283,0-1.4003448-0.2671432-1.9341545-0.801445  c-1.0685959-1.0681076-1.0685959-2.8002014,0-3.868309L90.8955994,50L59.6848679,18.7887821  c-1.0685959-1.0681095-1.0685959-2.8002043,0-3.8683128c1.0676231-1.0685949,2.8006897-1.0685949,3.8683128,0L96.698555,48.0658455  c1.0685959,1.0681076,1.0685959,2.8002014,0,3.868309L63.5531807,85.0795288  C63.0193672,85.6138306,62.3189507,85.8809738,61.6190224,85.8809738z"/></svg>