<svg xmlns="http://www.w3.org/2000/svg" version="1.1" viewBox="-5.0 -10.0 110.0 135.0">
 <path d="m79.512 71.379-2.543-37.48c-0.30859-4.5586-4.0312-8.1602-8.5703-8.3711-1.3672-3.8867-5.0391-6.5273-9.25-6.5273h-18.297c-4.2188 0-7.8906 2.6406-9.25 6.5312-4.5391 0.21094-8.2617 3.8086-8.5703 8.3789l-2.5508 37.469c-0.17188 2.4805 0.71875 4.9492 2.4219 6.7695 1.7188 1.8398 4.0586 2.8516 6.5703 2.8516h41.059c2.4883 0 4.8789-1.0391 6.5781-2.8594s2.582-4.2812 2.4023-6.7617zm-38.66-49.879h18.309c2.8203 0 5.3086 1.5898 6.5312 4.0117h-31.383c1.2109-2.4219 3.7109-4.0117 6.543-4.0117zm34.438 54.93c-1.2383 1.3281-2.9297 2.0586-4.75 2.0586h-41.07c-1.8203 0-3.5-0.73047-4.75-2.0586-1.25-1.3281-1.8711-3.0703-1.75-4.8906l2.5508-37.469c0.23047-3.3984 3.0781-6.0703 6.4883-6.0703h35.953c3.4102 0 6.2695 2.6602 6.4883 6.0586l2.5508 37.48c0.14062 1.832-0.46875 3.5625-1.7109 4.8906z" stroke="black" stroke-width="1"/>
 <path d="m62.559 36.391c-0.66016-0.19922-1.3594 0.17188-1.5586 0.82812-1.4805 4.8711-5.8984 8.1484-11 8.1484s-9.5117-3.2812-11-8.1484c-0.19922-0.66016-0.89844-1.0391-1.5586-0.82812-0.66016 0.19922-1.0312 0.89844-0.82812 1.5586 1.8086 5.9297 7.1914 9.9219 13.391 9.9219 6.1992 0 11.578-3.9883 13.391-9.9219 0.19531-0.66016-0.17578-1.3594-0.83594-1.5586z" stroke="black" stroke-width="1"/>
</svg>