<svg xmlns="http://www.w3.org/2000/svg" version="1.1" viewBox="-5.0 -10.0 110.0 135.0">
 <path d="m92.836 88.414-23.145-23.145c5.2539-6.25 8.4336-14.301 8.4336-23.086 0-19.816-16.121-35.938-35.938-35.938-19.816 0.003906-35.938 16.125-35.938 35.941s16.121 35.938 35.938 35.938c8.7852 0 16.836-3.1797 23.086-8.4336l23.145 23.145c0.60938 0.60937 1.4102 0.91406 2.2109 0.91406 0.80078 0 1.6016-0.30469 2.2109-0.91406 1.2227-1.2227 1.2227-3.1953 0-4.418zm-80.336-46.227c0-16.367 13.32-29.688 29.688-29.688s29.688 13.32 29.688 29.688-13.32 29.688-29.688 29.688-29.688-13.32-29.688-29.688z"
       fill="#222"/>
</svg>
