<svg width="318" height="47" viewBox="0 0 318 47" fill="none" xmlns="http://www.w3.org/2000/svg">
<path d="M18.224 46.448C14.9387 46.448 11.9947 45.9147 9.392 44.848C6.78933 43.7813 4.69867 42.2027 3.12 40.112C1.584 38.0213 0.773334 35.504 0.688 32.56H12.336C12.5067 34.224 13.0827 35.504 14.064 36.4C15.0453 37.2533 16.3253 37.68 17.904 37.68C19.5253 37.68 20.8053 37.3173 21.744 36.592C22.6827 35.824 23.152 34.7787 23.152 33.456C23.152 32.3467 22.768 31.4293 22 30.704C21.2747 29.9787 20.3573 29.3813 19.248 28.912C18.1813 28.4427 16.6453 27.9093 14.64 27.312C11.7387 26.416 9.37067 25.52 7.536 24.624C5.70133 23.728 4.12267 22.4053 2.8 20.656C1.47733 18.9067 0.816 16.624 0.816 13.808C0.816 9.62667 2.33067 6.36267 5.36 4.016C8.38933 1.62667 12.336 0.431999 17.2 0.431999C22.1493 0.431999 26.1387 1.62667 29.168 4.016C32.1973 6.36267 33.8187 9.648 34.032 13.872H22.192C22.1067 12.4213 21.5733 11.2907 20.592 10.48C19.6107 9.62666 18.352 9.2 16.816 9.2C15.4933 9.2 14.4267 9.56266 13.616 10.288C12.8053 10.9707 12.4 11.9733 12.4 13.296C12.4 14.7467 13.0827 15.8773 14.448 16.688C15.8133 17.4987 17.9467 18.3733 20.848 19.312C23.7493 20.2933 26.096 21.232 27.888 22.128C29.7227 23.024 31.3013 24.3253 32.624 26.032C33.9467 27.7387 34.608 29.936 34.608 32.624C34.608 35.184 33.9467 37.5093 32.624 39.6C31.344 41.6907 29.4667 43.3547 26.992 44.592C24.5173 45.8293 21.5947 46.448 18.224 46.448ZM52.095 1.072V27.952C52.095 30.64 52.7563 32.7093 54.079 34.16C55.4017 35.6107 57.343 36.336 59.903 36.336C62.463 36.336 64.4257 35.6107 65.791 34.16C67.1563 32.7093 67.839 30.64 67.839 27.952V1.072H78.783V27.888C78.783 31.8987 77.9297 35.2907 76.223 38.064C74.5163 40.8373 72.2123 42.928 69.311 44.336C66.4523 45.744 63.2523 46.448 59.711 46.448C56.1697 46.448 52.991 45.7653 50.175 44.4C47.4017 42.992 45.2043 40.9013 43.583 38.128C41.9617 35.312 41.151 31.8987 41.151 27.888V1.072H52.095ZM113.668 22.96C116.271 23.5147 118.361 24.816 119.94 26.864C121.519 28.8693 122.308 31.1733 122.308 33.776C122.308 37.5307 120.985 40.5173 118.34 42.736C115.737 44.912 112.089 46 107.396 46H86.468V1.072H106.692C111.257 1.072 114.82 2.11733 117.38 4.208C119.983 6.29866 121.284 9.136 121.284 12.72C121.284 15.3653 120.58 17.5627 119.172 19.312C117.807 21.0613 115.972 22.2773 113.668 22.96ZM97.412 19.248H104.58C106.372 19.248 107.737 18.864 108.676 18.096C109.657 17.2853 110.148 16.112 110.148 14.576C110.148 13.04 109.657 11.8667 108.676 11.056C107.737 10.2453 106.372 9.84 104.58 9.84H97.412V19.248ZM105.476 37.168C107.311 37.168 108.719 36.7627 109.7 35.952C110.724 35.0987 111.236 33.8827 111.236 32.304C111.236 30.7253 110.703 29.488 109.636 28.592C108.612 27.696 107.183 27.248 105.348 27.248H97.412V37.168H105.476ZM139.408 1.072V27.952C139.408 30.64 140.069 32.7093 141.392 34.16C142.714 35.6107 144.656 36.336 147.216 36.336C149.776 36.336 151.738 35.6107 153.104 34.16C154.469 32.7093 155.152 30.64 155.152 27.952V1.072H166.096V27.888C166.096 31.8987 165.242 35.2907 163.536 38.064C161.829 40.8373 159.525 42.928 156.624 44.336C153.765 45.744 150.565 46.448 147.024 46.448C143.482 46.448 140.304 45.7653 137.488 44.4C134.714 42.992 132.517 40.9013 130.896 38.128C129.274 35.312 128.464 31.8987 128.464 27.888V1.072H139.408ZM196.693 46L187.349 29.04H184.725V46H173.781V1.072H192.149C195.69 1.072 198.698 1.69066 201.173 2.928C203.69 4.16533 205.567 5.872 206.805 8.048C208.042 10.1813 208.661 12.5707 208.661 15.216C208.661 18.2027 207.807 20.8693 206.101 23.216C204.437 25.5627 201.962 27.2267 198.677 28.208L209.045 46H196.693ZM184.725 21.296H191.509C193.514 21.296 195.007 20.8053 195.989 19.824C197.013 18.8427 197.525 17.456 197.525 15.664C197.525 13.9573 197.013 12.6133 195.989 11.632C195.007 10.6507 193.514 10.16 191.509 10.16H184.725V21.296ZM242.731 22.96C245.333 23.5147 247.424 24.816 249.003 26.864C250.581 28.8693 251.371 31.1733 251.371 33.776C251.371 37.5307 250.048 40.5173 247.403 42.736C244.8 44.912 241.152 46 236.459 46H215.531V1.072H235.755C240.32 1.072 243.883 2.11733 246.443 4.208C249.045 6.29866 250.347 9.136 250.347 12.72C250.347 15.3653 249.643 17.5627 248.235 19.312C246.869 21.0613 245.035 22.2773 242.731 22.96ZM226.475 19.248H233.643C235.435 19.248 236.8 18.864 237.739 18.096C238.72 17.2853 239.211 16.112 239.211 14.576C239.211 13.04 238.72 11.8667 237.739 11.056C236.8 10.2453 235.435 9.84 233.643 9.84H226.475V19.248ZM234.539 37.168C236.373 37.168 237.781 36.7627 238.763 35.952C239.787 35.0987 240.299 33.8827 240.299 32.304C240.299 30.7253 239.765 29.488 238.699 28.592C237.675 27.696 236.245 27.248 234.411 27.248H226.475V37.168H234.539ZM294.646 46H283.702L270.326 18.288L265.398 46H254.454L262.39 1.072H273.334L286.71 28.912L291.638 1.072H302.582L294.646 46ZM310.963 46.512C309.043 46.512 307.464 45.9573 306.227 44.848C305.032 43.696 304.435 42.288 304.435 40.624C304.435 38.9173 305.032 37.488 306.227 36.336C307.464 35.184 309.043 34.608 310.963 34.608C312.84 34.608 314.376 35.184 315.571 36.336C316.808 37.488 317.427 38.9173 317.427 40.624C317.427 42.288 316.808 43.696 315.571 44.848C314.376 45.9573 312.84 46.512 310.963 46.512Z" fill="#111111"/>
</svg>
